<svg width="138" height="18" viewBox="0 0 138 18" fill="none" xmlns="http://www.w3.org/2000/svg">
<path d="M8.901 1.82C5.106 1.82 2.714 4.626 2.714 8.835C2.714 13.113 5.244 15.712 8.947 15.712C11.707 15.712 14.398 14.378 14.398 10.422V9.571H8.441V8.099H15.962V17.023H14.651L14.49 14.401C13.616 16.034 11.546 17.276 8.878 17.276C4.209 17.276 0.989 13.918 0.989 8.835C0.989 3.798 4.209 0.255999 8.924 0.255999C12.397 0.255999 15.088 2.234 15.732 5.224H13.938C13.248 2.97 11.316 1.82 8.901 1.82ZM25.185 17.276C21.919 17.276 19.734 14.93 19.734 11.434C19.734 7.961 21.896 5.569 25.07 5.569C28.083 5.569 30.13 7.708 30.13 10.859V11.641H21.275C21.39 14.355 22.816 15.919 25.208 15.919C27.025 15.919 28.198 15.137 28.612 13.665H30.13C29.532 16.011 27.807 17.276 25.185 17.276ZM25.07 6.926C22.977 6.926 21.597 8.306 21.321 10.491H28.543C28.543 8.352 27.163 6.926 25.07 6.926ZM35.8644 17H34.2774V5.868H35.6574L35.8414 7.455C36.3934 6.282 37.6354 5.569 39.1994 5.569C40.9474 5.569 42.2584 6.489 42.7874 7.938C43.2934 6.489 44.6504 5.569 46.4444 5.569C48.8594 5.569 50.4464 7.133 50.4464 9.709V17H48.9054V10.031C48.9054 8.122 47.8474 6.995 46.1454 6.995C44.2824 6.995 43.1784 8.398 43.1784 10.123V17H41.6144V10.008C41.6144 8.122 40.5334 7.018 38.8544 7.018C36.9914 7.018 35.8644 8.398 35.8644 10.1V17ZM66.3426 17L61.7886 5.868H63.4906L66.3656 13.044C66.6646 13.849 66.9636 14.608 67.1706 15.344C67.3776 14.585 67.6766 13.849 67.9986 13.044L70.9196 5.868H72.5526L67.9296 17H66.3426ZM74.964 13.918C74.964 11.756 76.597 10.675 79.035 10.629L82.807 10.537V9.778C82.807 7.915 81.634 6.903 79.84 6.903C77.908 6.903 76.781 7.8 76.781 9.272H75.332C75.332 7.018 77.149 5.569 79.863 5.569C81.749 5.569 83.198 6.466 83.773 7.869C84.67 6.42 86.188 5.569 88.074 5.569C91.133 5.569 93.134 7.731 93.134 10.859V11.641H84.256C84.394 14.263 85.774 15.919 88.212 15.919C90.052 15.919 91.225 15.137 91.616 13.665H93.157C92.559 16.011 90.834 17.276 88.189 17.276C86.004 17.276 84.325 16.218 83.474 14.424C82.807 16.126 81.082 17.276 78.828 17.276C76.367 17.276 74.964 15.965 74.964 13.918ZM88.074 6.926C85.981 6.926 84.555 8.352 84.302 10.514H91.547C91.547 8.375 90.19 6.926 88.074 6.926ZM76.574 13.849C76.574 15.298 77.609 15.988 79.219 15.988C81.404 15.988 82.807 14.562 82.807 12.446V11.687L79.288 11.779C77.425 11.825 76.574 12.492 76.574 13.849ZM103.115 5.73V7.156H102.241C100.194 7.156 98.8835 8.536 98.8835 10.652V17H97.2965V5.868H98.7915L98.9065 7.593C99.3435 6.397 100.516 5.615 102.08 5.615C102.425 5.615 102.724 5.638 103.115 5.73ZM108.491 17H106.904V0.232999H108.491V11.618L114.011 5.868H116.012L111.734 10.307L116.035 17H114.195L110.653 11.434L108.491 13.665V17ZM123.828 17.276C120.562 17.276 118.377 14.93 118.377 11.434C118.377 7.961 120.539 5.569 123.713 5.569C126.726 5.569 128.773 7.708 128.773 10.859V11.641H119.918C120.033 14.355 121.459 15.919 123.851 15.919C125.668 15.919 126.841 15.137 127.255 13.665H128.773C128.175 16.011 126.45 17.276 123.828 17.276ZM123.713 6.926C121.62 6.926 120.24 8.306 119.964 10.491H127.186C127.186 8.352 125.806 6.926 123.713 6.926ZM135.361 17H133.797V7.202H131.566V5.868H133.797V2.349H135.361V5.868H137.592V7.202H135.361V17Z" fill="white"/>
</svg>
